<svg width="24" height="24" viewBox="0 0 24 24" fill="none" xmlns="http://www.w3.org/2000/svg">
<path d="M4.92656 9.49609C5.2875 8.47422 5.87344 7.51328 6.69844 6.69297C9.62812 3.76328 14.3766 3.76328 17.3063 6.69297L18.1078 7.49922H16.5C15.6703 7.49922 15 8.16953 15 8.99922C15 9.82891 15.6703 10.4992 16.5 10.4992H21.7266H21.7453C22.575 10.4992 23.2453 9.82891 23.2453 8.99922V3.74922C23.2453 2.91953 22.575 2.24922 21.7453 2.24922C20.9156 2.24922 20.2453 2.91953 20.2453 3.74922V5.39922L19.425 4.57422C15.3234 0.472656 8.67656 0.472656 4.575 4.57422C3.43125 5.71797 2.60625 7.06328 2.1 8.50234C1.82344 9.28516 2.23594 10.1383 3.01406 10.4148C3.79219 10.6914 4.65 10.2789 4.92656 9.50078V9.49609ZM1.82812 13.5602C1.59375 13.6305 1.36875 13.757 1.18594 13.9445C0.998437 14.132 0.871875 14.357 0.80625 14.6008C0.792188 14.657 0.778125 14.718 0.76875 14.7789C0.754687 14.8586 0.75 14.9383 0.75 15.018V20.2492C0.75 21.0789 1.42031 21.7492 2.25 21.7492C3.07969 21.7492 3.75 21.0789 3.75 20.2492V18.6039L4.575 19.4242C8.67656 23.5211 15.3234 23.5211 19.4203 19.4242C20.5641 18.2805 21.3938 16.9352 21.9 15.4961C22.1766 14.7133 21.7641 13.8602 20.9859 13.5836C20.2078 13.307 19.35 13.7195 19.0734 14.4977C18.7125 15.5195 18.1266 16.4805 17.3016 17.3008C14.3719 20.2305 9.62344 20.2305 6.69375 17.3008L6.68906 17.2961L5.8875 16.4992H7.5C8.32969 16.4992 9 15.8289 9 14.9992C9 14.1695 8.32969 13.4992 7.5 13.4992H2.26875C2.19375 13.4992 2.11875 13.5039 2.04375 13.5133C1.96875 13.5227 1.89844 13.5367 1.82812 13.5602Z" fill="currentColor"/>
</svg>
