<svg width="24" height="24" viewBox="0 0 24 24" fill="none" xmlns="http://www.w3.org/2000/svg">
<path d="M3.75 4.5V19.5C3.75 19.9125 4.0875 20.25 4.5 20.25H19.5C19.9125 20.25 20.25 19.9125 20.25 19.5V7.99219C20.25 7.79531 20.1703 7.60312 20.0297 7.4625L21.6188 5.87344C22.1813 6.43594 22.4953 7.2 22.4953 7.99688L22.5 19.5C22.5 21.1547 21.1547 22.5 19.5 22.5H4.5C2.84531 22.5 1.5 21.1547 1.5 19.5V4.5C1.5 2.84531 2.84531 1.5 4.5 1.5H16.0078C16.8047 1.5 17.5687 1.81406 18.1312 2.37656L21.6234 5.86875L20.0344 7.45781L16.5375 3.97031C16.5234 3.95625 16.5141 3.94688 16.5 3.93281V8.625C16.5 9.24844 15.9984 9.75 15.375 9.75H6.375C5.75156 9.75 5.25 9.24844 5.25 8.625V3.75H4.5C4.0875 3.75 3.75 4.0875 3.75 4.5ZM7.5 3.75V7.5H14.25V3.75H7.5ZM9 15C9 14.2044 9.31607 13.4413 9.87868 12.8787C10.4413 12.3161 11.2044 12 12 12C12.7956 12 13.5587 12.3161 14.1213 12.8787C14.6839 13.4413 15 14.2044 15 15C15 15.7956 14.6839 16.5587 14.1213 17.1213C13.5587 17.6839 12.7956 18 12 18C11.2044 18 10.4413 17.6839 9.87868 17.1213C9.31607 16.5587 9 15.7956 9 15Z" fill="currentColor"/>
</svg>
